<svg xmlns="http://www.w3.org/2000/svg" width="44.215" height="45.738" viewBox="0 0 44.215 45.738">
  <g id="transfer" transform="translate(83 1090.37)">
    <g id="transfer-2" data-name="transfer" transform="translate(-83 -1090.37)">
      <g id="Group_111" data-name="Group 111">
        <path id="Path_192" data-name="Path 192" d="M52.448,285.685a1.149,1.149,0,0,0-1.15-1.15H12.152l6.881-6.881a1.144,1.144,0,0,0-1.617-1.617l-8.835,8.835a1.14,1.14,0,0,0,0,1.617l8.835,8.835a1.147,1.147,0,0,0,1.627-1.617l-6.881-6.881H51.317A1.137,1.137,0,0,0,52.448,285.685Z" transform="translate(-8.235 -249.923)" fill="#0aaf2c"/>
        <path id="Path_193" data-name="Path 193" d="M52.021,9.163,43.186.337a1.144,1.144,0,0,0-1.617,1.617L48.45,8.835H9.294a1.15,1.15,0,0,0,0,2.3H48.45L41.568,18A1.147,1.147,0,0,0,43.2,19.615l8.835-8.835A1.148,1.148,0,0,0,52.021,9.163Z" transform="translate(-8.144 0)" fill="#0aaf2c"/>
      </g>
    </g>
  </g>
</svg>
